<svg xmlns="http://www.w3.org/2000/svg" viewBox="0 0 64 64" role="img" aria-label="Clarify AI">
  <defs>
    <linearGradient id="g" x1="0%" y1="0%" x2="100%" y2="100%">
      <stop offset="0%" stop-color="#7c3aed"/>
      <stop offset="100%" stop-color="#c026d3"/>
    </linearGradient>
  </defs>
  <rect width="64" height="64" rx="14" fill="url(#g)"/>
  <path fill="#fff" d="M32 16c-6.6 0-12 5.4-12 12v8c0 6.6 5.4 12 12 12s12-5.4 12-12v-8c0-6.6-5.4-12-12-12zm0 6c3.3 0 6 2.7 6 6v8c0 3.3-2.7 6-6 6s-6-2.7-6-6v-8c0-3.3 2.7-6 6-6z"/>
  <rect x="29" y="44" width="6" height="10" rx="3" fill="#fff"/>
  <path fill="#fff" d="M22 48h20v3H22z" opacity=".85"/>
</svg>
